<svg data-v-423bf9ae="" xmlns="http://www.w3.org/2000/svg" viewBox="0 0 353 90" class="iconLeftSlogan"><!----><!----><!----><g data-v-423bf9ae="" id="e91c38d7-fbc3-4a17-bc7c-a2312257f399" fill="#041F57" transform="matrix(4.691776503278748,0,0,4.691776503278748,113.0459340726229,1.7594157118923697)"><path d="M0.77 8.68L0.77 8.68L0.77 8.68Q1.23 9.03 1.77 9.28L1.77 9.28L1.77 9.28Q2.31 9.53 2.94 9.56L2.94 9.56L2.94 9.56Q3.68 9.59 4.58 9.44L4.58 9.44L4.58 9.44Q5.47 9.28 6.26 8.89L6.26 8.89L6.26 8.89Q7.04 8.50 7.59 7.85L7.59 7.85L7.59 7.85Q8.15 7.21 8.20 6.26L8.20 6.26L8.20 6.26Q8.23 5.89 8.22 5.63L8.22 5.63L8.22 5.63Q8.20 5.36 7.97 5.11L7.97 5.11L7.97 5.11Q7.78 4.90 7.43 4.74L7.43 4.74L7.43 4.74Q7.08 4.58 6.69 4.45L6.69 4.45L6.69 4.45Q6.29 4.33 5.89 4.24L5.89 4.24L5.89 4.24Q5.49 4.16 5.21 4.12L5.21 4.12L5.21 4.12Q4.97 4.07 4.75 3.96L4.75 3.96L4.75 3.96Q4.54 3.85 4.38 3.68L4.38 3.68L4.38 3.68Q4.23 3.51 4.14 3.29L4.14 3.29L4.14 3.29Q4.06 3.07 4.09 2.81L4.09 2.81L4.09 2.81Q4.40 2.24 4.87 1.90L4.87 1.90L4.87 1.90Q5.33 1.55 5.87 1.39L5.87 1.39L5.87 1.39Q6.41 1.22 6.98 1.20L6.98 1.20L6.98 1.20Q7.55 1.18 8.06 1.23L8.06 1.23L8.06 1.23Q8.25 1.26 8.42 1.30L8.42 1.30L8.42 1.30Q8.60 1.34 8.79 1.34L8.79 1.34L8.78 1.34L8.78 1.34Q8.97 1.20 9.04 1.02L9.04 1.02L9.04 1.02Q9.10 0.84 9.20 0.73L9.20 0.73L9.20 0.73Q9.27 0.56 9.30 0.36L9.30 0.36L9.30 0.36Q9.32 0.17 9.34 0L9.34 0L9.34 0Q8.89-0.24 8.26-0.30L8.26-0.30L8.26-0.30Q7.63-0.36 6.94-0.26L6.94-0.26L6.94-0.26Q6.24-0.15 5.54 0.11L5.54 0.11L5.54 0.11Q4.84 0.38 4.26 0.78L4.26 0.78L4.26 0.78Q3.67 1.18 3.25 1.71L3.25 1.71L3.25 1.71Q2.83 2.24 2.70 2.87L2.70 2.87L2.70 2.87Q2.56 3.51 2.65 3.93L2.65 3.93L2.65 3.93Q2.74 4.34 3.00 4.60L3.00 4.60L3.00 4.60Q3.25 4.86 3.62 5.01L3.62 5.01L3.62 5.01Q3.99 5.15 4.41 5.26L4.41 5.26L4.41 5.26Q4.83 5.38 5.26 5.50L5.26 5.50L5.26 5.50Q5.68 5.63 6.05 5.84L6.05 5.84L6.05 5.84Q6.27 5.96 6.47 6.17L6.47 6.17L6.47 6.17Q6.66 6.38 6.62 6.69L6.62 6.69L6.62 6.69Q6.55 7.18 6.16 7.48L6.16 7.48L6.16 7.48Q5.77 7.77 5.26 7.94L5.26 7.94L5.26 7.94Q4.76 8.11 4.24 8.16L4.24 8.16L4.24 8.16Q3.72 8.22 3.40 8.20L3.40 8.20L3.40 8.20Q3.08 8.20 2.83 8.10L2.83 8.10L2.83 8.10Q2.58 7.99 2.36 7.85L2.36 7.85L2.36 7.85Q2.14 7.70 1.95 7.53L1.95 7.53L1.95 7.53Q1.76 7.35 1.58 7.18L1.58 7.18L1.58 7.18Q1.41 7.34 1.26 7.53L1.26 7.53L1.26 7.53Q1.11 7.71 0.99 7.92L0.99 7.92L0.99 7.92Q0.87 8.13 0.81 8.33L0.81 8.33L0.81 8.33Q0.76 8.53 0.77 8.68ZM13.16 9.31L13.16 9.31L13.16 9.31Q13.26 9.18 13.34 9.00L13.34 9.00L13.34 9.00Q13.41 8.82 13.47 8.62L13.47 8.62L13.47 8.62Q13.54 8.43 13.59 8.24L13.59 8.24L13.59 8.24Q13.64 8.05 13.66 7.90L13.66 7.90L13.66 7.90Q13.82 7.20 13.96 6.48L13.96 6.48L13.96 6.48Q14.11 5.75 13.97 5.08L13.97 5.08L13.97 5.08Q13.85 4.42 13.46 4.19L13.46 4.19L13.46 4.19Q13.08 3.95 12.58 4.00L12.58 4.00L12.58 4.00Q12.08 4.06 11.54 4.36L11.54 4.36L11.54 4.36Q11.00 4.66 10.56 5.07L10.56 5.07L10.56 5.07Q10.57 4.98 10.65 4.62L10.65 4.62L10.65 4.62Q10.72 4.26 10.83 3.75L10.83 3.75L10.83 3.75Q10.93 3.23 11.05 2.65L11.05 2.65L11.05 2.65Q11.17 2.06 11.28 1.55L11.28 1.55L11.28 1.55Q11.38 1.05 11.45 0.69L11.45 0.69L11.45 0.69Q11.51 0.34 11.51 0.27L11.51 0.27L11.51 0.27Q11.42 0.27 11.26 0.21L11.26 0.21L11.26 0.21Q11.09 0.15 11.02 0.21L11.02 0.21L11.02 0.21Q10.98 0.22 10.91 0.22L10.91 0.22L10.91 0.22Q10.84 0.22 10.75 0.23L10.75 0.23L10.75 0.23Q10.67 0.24 10.60 0.25L10.60 0.25L10.60 0.25Q10.53 0.27 10.50 0.29L10.50 0.29L10.50 0.29Q10.47 0.32 10.41 0.59L10.41 0.59L10.41 0.59Q10.35 0.85 10.26 1.32L10.26 1.32L10.26 1.32Q10.18 1.78 10.05 2.40L10.05 2.40L10.05 2.40Q9.93 3.02 9.77 3.78L9.77 3.78L9.77 3.78Q9.65 4.37 9.51 5.00L9.51 5.00L9.51 5.00Q9.38 5.63 9.25 6.24L9.25 6.24L9.25 6.24Q9.11 6.85 8.99 7.39L8.99 7.39L8.99 7.39Q8.86 7.94 8.77 8.37L8.77 8.37L8.77 8.37Q8.68 8.79 8.62 9.07L8.62 9.07L8.62 9.07Q8.55 9.35 8.54 9.41L8.54 9.41L8.54 9.41Q8.55 9.53 8.69 9.58L8.69 9.58L8.69 9.58Q8.82 9.63 8.99 9.63L8.99 9.63L8.99 9.63Q9.16 9.63 9.33 9.62L9.33 9.62L9.33 9.62Q9.51 9.60 9.62 9.60L9.62 9.60L9.62 9.60Q9.62 9.60 9.64 9.49L9.64 9.49L9.64 9.49Q9.66 9.37 9.69 9.27L9.69 9.27L9.69 9.27Q9.84 8.55 10.00 7.83L10.00 7.83L10.00 7.83Q10.16 7.10 10.49 6.38L10.49 6.38L10.49 6.38Q10.65 6.02 11.04 5.71L11.04 5.71L11.04 5.71Q11.42 5.39 11.82 5.30L11.82 5.30L11.82 5.30Q12.21 5.21 12.50 5.43L12.50 5.43L12.50 5.43Q12.78 5.64 12.74 6.33L12.74 6.33L12.74 6.33Q12.71 6.62 12.66 6.94L12.66 6.94L12.66 6.94Q12.60 7.25 12.53 7.55L12.53 7.55L12.53 7.55Q12.39 8.05 12.29 8.43L12.29 8.43L12.29 8.43Q12.19 8.81 12.08 9.31L12.08 9.31L12.08 9.31Q12.21 9.38 12.38 9.41L12.38 9.41L12.38 9.41Q12.56 9.44 12.75 9.37L12.75 9.37L12.75 9.37Q12.87 9.34 12.96 9.33L12.96 9.33L12.96 9.33Q13.06 9.32 13.16 9.31ZM18.55 3.51L18.55 3.51L18.55 3.51Q18.41 3.53 18.23 3.55L18.23 3.55L18.23 3.55Q18.06 3.57 17.89 3.63L17.89 3.63L17.89 3.63Q17.70 3.70 17.48 3.80L17.48 3.80L17.48 3.80Q17.26 3.91 17.09 4.00L17.09 4.00L17.09 4.00Q16.46 4.34 15.99 4.82L15.99 4.82L15.99 4.82Q15.53 5.29 15.23 5.84L15.23 5.84L15.23 5.84Q14.94 6.38 14.84 6.95L14.84 6.95L14.84 6.95Q14.74 7.52 14.85 8.03L14.85 8.03L14.85 8.03Q14.97 8.54 15.32 8.94L15.32 8.94L15.32 8.94Q15.67 9.34 16.25 9.56L16.25 9.56L16.25 9.56Q16.55 9.67 16.86 9.69L16.86 9.69L16.86 9.69Q17.63 9.73 18.32 9.43L18.32 9.43L18.32 9.43Q19.01 9.13 19.54 8.62L19.54 8.62L19.54 8.62Q20.08 8.12 20.43 7.47L20.43 7.47L20.43 7.47Q20.79 6.82 20.89 6.17L20.89 6.17L20.89 6.17Q21 5.52 20.82 4.91L20.82 4.91L20.82 4.91Q20.65 4.31 20.13 3.91L20.13 3.91L20.13 3.91Q19.81 3.65 19.39 3.57L19.39 3.57L19.39 3.57Q18.97 3.49 18.55 3.51ZM19.68 6.20L19.68 6.20L19.68 6.20Q19.57 6.76 19.29 7.18L19.29 7.18L19.29 7.18Q19.00 7.59 18.63 7.86L18.63 7.86L18.63 7.86Q18.26 8.13 17.85 8.27L17.85 8.27L17.85 8.27Q17.44 8.40 17.08 8.39L17.08 8.39L17.08 8.39Q16.72 8.39 16.44 8.24L16.44 8.24L16.44 8.24Q16.16 8.09 16.06 7.80L16.06 7.80L16.06 7.80Q15.97 7.56 15.99 7.29L15.99 7.29L15.99 7.29Q16.00 7.01 16.06 6.73L16.06 6.73L16.06 6.73Q16.09 6.59 16.16 6.46L16.16 6.46L16.16 6.46Q16.23 6.33 16.30 6.19L16.30 6.19L16.30 6.19Q16.60 5.60 17.00 5.25L17.00 5.25L17.00 5.25Q17.40 4.90 17.81 4.75L17.81 4.75L17.81 4.75Q18.23 4.59 18.61 4.63L18.61 4.63L18.61 4.63Q18.98 4.68 19.26 4.87L19.26 4.87L19.26 4.87Q19.53 5.07 19.66 5.41L19.66 5.41L19.66 5.41Q19.78 5.75 19.68 6.20ZM23.65 4.65L23.65 4.65L23.65 4.65Q23.65 4.49 23.66 4.40L23.66 4.40L23.66 4.40Q23.67 4.30 23.70 4.21L23.70 4.21L23.70 4.21Q23.72 4.13 23.75 4.03L23.75 4.03L23.75 4.03Q23.79 3.93 23.81 3.77L23.81 3.77L23.81 3.77Q23.58 3.74 23.36 3.75L23.36 3.75L23.36 3.75Q23.14 3.77 22.95 3.79L22.95 3.79L22.95 3.79Q22.76 3.82 22.64 3.86L22.64 3.86L22.64 3.86Q22.51 3.89 22.47 3.91L22.47 3.91L22.47 3.91Q22.43 4.06 22.40 4.27L22.40 4.27L22.40 4.27Q22.37 4.48 22.34 4.63L22.34 4.63L22.34 4.63Q22.29 4.90 22.25 5.07L22.25 5.07L22.25 5.07Q22.22 5.24 22.19 5.38L22.19 5.38L22.19 5.38Q22.16 5.53 22.13 5.70L22.13 5.70L22.13 5.70Q22.09 5.87 22.04 6.13L22.04 6.13L22.04 6.13Q21.88 6.83 21.73 7.58L21.73 7.58L21.73 7.58Q21.57 8.33 21.41 9.10L21.41 9.10L21.41 9.10Q21.24 9.87 21.08 10.62L21.08 10.62L21.08 10.62Q20.92 11.37 20.78 12.07L20.78 12.07L20.78 12.07Q20.75 12.18 20.79 12.22L20.79 12.22L20.79 12.22Q20.80 12.24 20.92 12.28L20.92 12.28L20.92 12.28Q21.04 12.32 21.07 12.33L21.07 12.33L21.07 12.33Q21.21 12.39 21.29 12.40L21.29 12.40L21.29 12.40Q21.38 12.42 21.45 12.41L21.45 12.41L21.45 12.41Q21.53 12.40 21.63 12.37L21.63 12.37L21.63 12.37Q21.73 12.33 21.88 12.29L21.88 12.29L22.11 11.03L22.11 11.03Q22.22 10.57 22.34 10.10L22.34 10.10L22.34 10.10Q22.46 9.63 22.55 9.17L22.55 9.17L22.55 9.17Q22.67 9.18 22.71 9.25L22.71 9.25L22.71 9.25Q22.76 9.32 22.88 9.32L22.88 9.32L22.88 9.32Q23.14 9.48 23.53 9.45L23.53 9.45L23.53 9.45Q23.91 9.42 24.31 9.30L24.31 9.30L24.31 9.30Q24.71 9.17 25.09 8.97L25.09 8.97L25.09 8.97Q25.48 8.76 25.76 8.57L25.76 8.57L25.76 8.57Q26.43 8.09 26.86 7.56L26.86 7.56L26.86 7.56Q27.29 7.03 27.44 6.27L27.44 6.27L27.44 6.27Q27.65 5.26 27.09 4.54L27.09 4.54L27.09 4.54Q26.95 4.35 26.80 4.24L26.80 4.24L26.80 4.24Q26.66 4.12 26.49 4.05L26.49 4.05L26.49 4.05Q26.33 3.98 26.14 3.93L26.14 3.93L26.14 3.93Q25.96 3.88 25.73 3.84L25.73 3.84L25.69 3.82L25.69 3.82Q25.34 3.89 25.05 3.93L25.05 3.93L25.05 3.93Q24.77 3.98 24.40 4.16L24.40 4.16L24.40 4.16Q24.21 4.27 23.96 4.42L23.96 4.42L23.96 4.42Q23.72 4.58 23.65 4.65ZM22.85 8.06L22.85 8.06L22.85 8.06Q22.86 7.92 22.92 7.57L22.92 7.57L22.92 7.57Q22.99 7.21 23.08 6.82L23.08 6.82L23.08 6.82Q23.17 6.43 23.29 6.09L23.29 6.09L23.29 6.09Q23.41 5.75 23.52 5.66L23.52 5.66L23.52 5.66Q23.73 5.47 24.03 5.35L24.03 5.35L24.03 5.35Q24.33 5.22 24.66 5.17L24.66 5.17L24.66 5.17Q24.99 5.11 25.30 5.14L25.30 5.14L25.30 5.14Q25.62 5.17 25.86 5.28L25.86 5.28L25.86 5.28Q26.10 5.39 26.21 5.61L26.21 5.61L26.21 5.61Q26.33 5.84 26.26 6.17L26.26 6.17L26.26 6.17Q26.15 6.65 25.91 6.98L25.91 6.98L25.91 6.98Q25.66 7.31 25.33 7.53L25.33 7.53L25.33 7.53Q24.99 7.76 24.59 7.90L24.59 7.90L24.59 7.90Q24.19 8.05 23.79 8.15L23.79 8.15L23.79 8.15Q23.23 8.27 22.85 8.06ZM33.68 5.12L33.68 5.12L33.68 5.12Q34.03 5.42 34.08 5.81L34.08 5.81L34.08 5.81Q34.12 6.20 33.93 6.61L33.93 6.61L33.93 6.61Q33.74 7.01 33.35 7.39L33.35 7.39L33.35 7.39Q32.97 7.76 32.48 7.99L32.48 7.99L32.48 7.99Q31.99 8.23 31.42 8.29L31.42 8.29L31.42 8.29Q30.86 8.34 30.31 8.12L30.31 8.12L30.31 8.12Q30.06 8.05 29.76 7.90L29.76 7.90L29.76 7.90Q29.47 7.74 29.20 7.57L29.20 7.57L29.20 7.57Q28.94 7.41 28.73 7.27L28.73 7.27L28.73 7.27Q28.53 7.14 28.45 7.11L28.45 7.11L28.45 7.11Q28.34 7.27 28.23 7.39L28.23 7.39L28.23 7.39Q28.13 7.50 27.99 7.76L27.99 7.76L27.99 7.76Q27.96 7.78 27.92 7.88L27.92 7.88L27.92 7.88Q27.89 7.97 27.85 8.08L27.85 8.08L27.85 8.08Q27.82 8.19 27.79 8.29L27.79 8.29L27.79 8.29Q27.76 8.39 27.75 8.41L27.75 8.41L27.75 8.41Q27.75 8.41 28.04 8.58L28.04 8.58L28.04 8.58Q28.34 8.75 28.76 8.96L28.76 8.96L28.76 8.96Q29.19 9.17 29.67 9.36L29.67 9.36L29.67 9.36Q30.14 9.55 30.49 9.58L30.49 9.58L30.49 9.58Q30.63 9.59 30.76 9.60L30.76 9.60L30.76 9.60Q30.88 9.62 31.02 9.62L31.02 9.62L31.02 9.62Q31.42 9.63 31.85 9.55L31.85 9.55L31.85 9.55Q33.38 9.23 34.29 8.24L34.29 8.24L34.29 8.24Q35.21 7.25 35.41 5.80L35.41 5.80L35.41 5.80Q35.38 5.03 35 4.64L35 4.64L35 4.64Q34.62 4.26 33.82 3.99L33.82 3.99L33.82 3.99Q34.08 3.88 34.36 3.73L34.36 3.73L34.36 3.73Q34.64 3.58 34.89 3.41L34.89 3.41L34.89 3.41Q35.15 3.23 35.38 3.01L35.38 3.01L35.38 3.01Q35.60 2.79 35.73 2.52L35.73 2.52L35.73 2.52Q35.88 2.18 35.94 1.92L35.94 1.92L35.94 1.92Q35.99 1.65 35.92 1.30L35.92 1.30L35.92 1.30Q35.85 0.90 35.64 0.62L35.64 0.62L35.64 0.62Q35.42 0.34 35.12 0.16L35.12 0.16L35.12 0.16Q34.82-0.01 34.44-0.10L34.44-0.10L34.44-0.10Q34.06-0.18 33.67-0.22L33.67-0.22L33.66-0.21L33.66-0.21Q33.29-0.24 32.95-0.19L32.95-0.19L32.95-0.19Q32.61-0.14 32.26-0.04L32.26-0.04L32.26-0.04Q32.10 0 31.81 0.10L31.81 0.10L31.81 0.10Q31.51 0.20 31.18 0.33L31.18 0.33L31.18 0.33Q30.86 0.46 30.53 0.61L30.53 0.61L30.53 0.61Q30.20 0.76 29.97 0.90L29.97 0.90L29.97 0.90Q29.95 0.94 29.92 1.16L29.92 1.16L29.92 1.16Q29.89 1.37 29.90 1.60L29.90 1.60L29.90 1.60Q29.90 1.83 29.97 2.00L29.97 2.00L29.97 2.00Q30.04 2.16 30.23 2.09L30.23 2.09L30.23 2.09Q30.44 2.00 30.62 1.93L30.62 1.93L30.62 1.93Q30.80 1.85 30.98 1.78L30.98 1.78L30.98 1.78Q31.15 1.71 31.28 1.66L31.28 1.66L31.28 1.66Q31.42 1.61 31.53 1.56L31.53 1.56L31.53 1.56Q31.65 1.51 31.79 1.46L31.79 1.46L31.79 1.46Q31.92 1.41 32.09 1.36L32.09 1.36L32.09 1.36Q32.16 1.33 32.28 1.31L32.28 1.31L32.28 1.31Q32.40 1.29 32.54 1.27L32.54 1.27L32.54 1.27Q32.68 1.25 32.80 1.23L32.80 1.23L32.80 1.23Q32.93 1.22 33.01 1.19L33.01 1.19L33.01 1.19Q33.36 1.12 33.73 1.14L33.73 1.14L33.73 1.14Q34.10 1.16 34.41 1.29L34.41 1.29L34.41 1.29Q34.59 1.37 34.70 1.51L34.70 1.51L34.70 1.51Q34.80 1.65 34.76 1.88L34.76 1.88L34.76 1.88Q34.69 2.24 34.31 2.53L34.31 2.53L34.31 2.53Q33.92 2.81 33.42 3.02L33.42 3.02L33.42 3.02Q32.91 3.23 32.40 3.38L32.40 3.38L32.40 3.38Q31.89 3.53 31.56 3.61L31.56 3.61L31.56 3.61Q31.44 3.64 31.21 3.63L31.21 3.63L31.21 3.63Q30.97 3.61 30.86 3.65L30.86 3.65L30.86 3.65Q30.87 3.68 30.83 3.86L30.83 3.86L30.83 3.86Q30.79 4.05 30.73 4.26L30.73 4.26L30.73 4.26Q30.67 4.47 30.63 4.64L30.63 4.64L30.63 4.64Q30.59 4.82 30.62 4.82L30.62 4.82L30.62 4.82Q30.66 4.82 30.77 4.82L30.77 4.82L30.77 4.82Q30.90 4.82 31.02 4.82L31.02 4.82L31.02 4.82Q31.15 4.82 31.26 4.82L31.26 4.82L31.26 4.82Q31.39 4.82 31.43 4.80L31.43 4.80L31.43 4.80Q31.65 4.76 31.97 4.74L31.97 4.74L31.97 4.74Q32.28 4.72 32.60 4.74L32.60 4.74L32.60 4.74Q32.91 4.76 33.19 4.84L33.19 4.84L33.19 4.84Q33.46 4.93 33.60 5.08L33.60 5.08L33.60 5.08Q33.63 5.08 33.64 5.10L33.64 5.10L33.64 5.10Q33.66 5.11 33.68 5.12ZM40.32 1.44L40.32 1.44L40.32 1.44Q40.88 1.04 41.64 0.89L41.64 0.89L41.64 0.89Q42.39 0.74 43.32 0.73L43.32 0.73L43.32 0.73Q43.41 0.67 43.49 0.50L43.49 0.50L43.49 0.50Q43.57 0.34 43.59 0.15L43.59 0.15L43.59 0.15Q43.61-0.04 43.55-0.20L43.55-0.20L43.55-0.20Q43.48-0.35 43.32-0.35L43.32-0.35L43.32-0.35Q43.23-0.36 43.05-0.37L43.05-0.37L43.05-0.37Q42.87-0.38 42.64-0.37L42.64-0.37L42.64-0.37Q42.42-0.36 42.17-0.34L42.17-0.34L42.17-0.34Q41.93-0.32 41.72-0.28L41.72-0.28L41.72-0.28Q41.59-0.25 41.37-0.20L41.37-0.20L41.37-0.20Q41.15-0.14 40.91-0.06L40.91-0.06L40.91-0.06Q40.67 0.01 40.45 0.10L40.45 0.10L40.45 0.10Q40.24 0.18 40.12 0.24L40.12 0.24L40.12 0.24Q39.31 0.66 38.68 1.27L38.68 1.27L38.68 1.27Q38.05 1.88 37.59 2.60L37.59 2.60L37.59 2.60Q37.13 3.32 36.81 4.12L36.81 4.12L36.81 4.12Q36.50 4.93 36.32 5.74L36.32 5.74L36.30 5.75L36.30 5.75Q36.01 7.14 36.30 8.05L36.30 8.05L36.30 8.05Q36.60 8.96 37.24 9.41L37.24 9.41L37.24 9.41Q37.88 9.86 38.75 9.86L38.75 9.86L38.75 9.86Q39.63 9.86 40.48 9.44L40.48 9.44L40.48 9.44Q41.33 9.02 42.03 8.17L42.03 8.17L42.03 8.17Q42.74 7.32 43.06 6.09L43.06 6.09L43.06 6.09Q43.26 5.29 43.18 4.73L43.18 4.73L43.18 4.73Q43.11 4.17 42.84 3.80L42.84 3.80L42.84 3.80Q42.57 3.43 42.17 3.23L42.17 3.23L42.17 3.23Q41.76 3.04 41.31 2.98L41.31 2.98L41.31 2.98Q40.87 2.93 40.42 3.00L40.42 3.00L40.42 3.00Q39.97 3.07 39.62 3.22L39.62 3.22L39.62 3.22Q39.35 3.33 39.09 3.48L39.09 3.48L39.09 3.48Q38.82 3.63 38.60 3.82L38.60 3.82L38.60 3.82Q38.58 3.84 38.60 3.77L38.60 3.77L38.60 3.77Q38.61 3.71 38.63 3.63L38.63 3.63L38.63 3.63Q38.65 3.56 38.67 3.49L38.67 3.49L38.67 3.49Q38.70 3.42 38.68 3.42L38.68 3.42L38.68 3.42Q38.84 3.05 38.99 2.79L38.99 2.79L38.99 2.79Q39.14 2.53 39.33 2.32L39.33 2.32L39.33 2.32Q39.52 2.10 39.76 1.90L39.76 1.90L39.76 1.90Q40.00 1.69 40.32 1.44ZM41.80 5.56L41.80 5.56L41.80 5.56Q41.73 5.91 41.57 6.28L41.57 6.28L41.57 6.28Q41.40 6.65 41.16 7.00L41.16 7.00L41.16 7.00Q40.92 7.35 40.62 7.64L40.62 7.64L40.62 7.64Q40.32 7.94 39.97 8.12L39.97 8.12L39.97 8.12Q39.77 8.23 39.56 8.27L39.56 8.27L39.56 8.27Q39.35 8.32 39.16 8.36L39.16 8.36L39.16 8.36Q38.72 8.46 38.41 8.37L38.41 8.37L38.41 8.37Q38.09 8.29 37.91 8.08L37.91 8.08L37.91 8.08Q37.72 7.87 37.65 7.54L37.65 7.54L37.65 7.54Q37.59 7.21 37.63 6.82L37.63 6.82L37.63 6.82Q37.67 6.54 37.77 6.20L37.77 6.20L37.77 6.20Q37.87 5.87 38.02 5.59L38.02 5.59L38.02 5.59Q38.28 5.08 38.69 4.75L38.69 4.75L38.69 4.75Q39.10 4.41 39.55 4.26L39.55 4.26L39.55 4.26Q40.00 4.10 40.45 4.11L40.45 4.11L40.45 4.11Q40.89 4.12 41.23 4.28L41.23 4.28L41.23 4.28Q41.57 4.45 41.73 4.77L41.73 4.77L41.73 4.77Q41.90 5.10 41.80 5.56ZM49.04 0.06L49.04 0.06L49.04 0.06Q48.79-0.01 48.45 0.02L48.45 0.02L48.45 0.02Q48.10 0.06 47.75 0.16L47.75 0.16L47.75 0.16Q47.40 0.27 47.10 0.41L47.10 0.41L47.10 0.41Q46.79 0.56 46.61 0.69L46.61 0.69L46.61 0.69Q46.07 0.99 45.62 1.52L45.62 1.52L45.62 1.52Q45.16 2.04 44.81 2.66L44.81 2.66L44.81 2.66Q44.45 3.28 44.20 3.94L44.20 3.94L44.20 3.94Q43.96 4.61 43.85 5.19L43.85 5.19L43.85 5.19Q43.79 5.47 43.74 5.84L43.74 5.84L43.74 5.84Q43.68 6.20 43.65 6.57L43.65 6.57L43.65 6.57Q43.62 6.93 43.64 7.27L43.64 7.27L43.64 7.27Q43.65 7.62 43.74 7.87L43.74 7.87L43.75 7.88L43.75 7.88Q43.89 8.33 44.04 8.65L44.04 8.65L44.04 8.65Q44.18 8.96 44.51 9.24L44.51 9.24L44.51 9.24Q44.86 9.53 45.28 9.67L45.28 9.67L45.28 9.67Q45.71 9.81 46.19 9.81L46.19 9.81L46.19 9.81Q47.03 9.81 47.78 9.33L47.78 9.33L47.78 9.33Q48.54 8.85 49.14 8.09L49.14 8.09L49.14 8.09Q49.74 7.34 50.16 6.41L50.16 6.41L50.16 6.41Q50.58 5.47 50.78 4.58L50.78 4.58L50.78 4.58Q50.83 4.31 50.88 4.00L50.88 4.00L50.88 4.00Q50.92 3.68 50.94 3.36L50.94 3.36L50.94 3.36Q50.96 3.04 50.96 2.73L50.96 2.73L50.96 2.73Q50.96 2.42 50.92 2.18L50.92 2.18L50.92 2.18Q50.75 1.08 50.05 0.35L50.05 0.35L50.05 0.35Q49.99 0.29 49.86 0.24L49.86 0.24L49.86 0.24Q49.73 0.18 49.57 0.13L49.57 0.13L49.57 0.13Q49.42 0.08 49.27 0.06L49.27 0.06L49.27 0.06Q49.13 0.04 49.04 0.06ZM48.17 1.36L48.17 1.36L48.17 1.36Q48.72 1.34 49.04 1.62L49.04 1.62L49.04 1.62Q49.36 1.90 49.50 2.37L49.50 2.37L49.50 2.37Q49.63 2.84 49.59 3.45L49.59 3.45L49.59 3.45Q49.56 4.06 49.41 4.68L49.41 4.68L49.41 4.68Q49.25 5.31 48.99 5.89L48.99 5.89L48.99 5.89Q48.73 6.48 48.43 6.93L48.43 6.93L48.43 6.93Q48.01 7.53 47.58 7.84L47.58 7.84L47.58 7.84Q47.15 8.15 46.55 8.23L46.55 8.23L46.55 8.23Q46.03 8.30 45.59 8.09L45.59 8.09L45.59 8.09Q45.15 7.87 45.01 7.32L45.01 7.32L45.01 7.32Q44.86 6.78 44.92 6.16L44.92 6.16L44.92 6.16Q44.98 5.54 45.16 4.91L45.16 4.91L45.16 4.91Q45.33 4.28 45.62 3.65L45.62 3.65L45.62 3.65Q45.91 3.02 46.29 2.52L46.29 2.52L46.29 2.52Q46.68 2.02 47.15 1.70L47.15 1.70L47.15 1.70Q47.63 1.39 48.17 1.36Z"></path></g><defs data-v-423bf9ae=""><linearGradient data-v-423bf9ae="" gradientTransform="rotate(25)" id="e8c9c2a9-7a32-46d3-afd6-080872931e12" x1="0%" y1="0%" x2="100%" y2="0%"><stop data-v-423bf9ae="" offset="0%" style="stop-color: rgb(0, 21, 214); stop-opacity: 1;"></stop><stop data-v-423bf9ae="" offset="100%" style="stop-color: rgb(9, 137, 251); stop-opacity: 1;"></stop></linearGradient></defs><g data-v-423bf9ae="" id="fa79849b-ac22-4b86-83bd-b1f289518381" transform="matrix(3.02033690133878,0,0,3.02033690133878,0.6746095785795205,-6.44676146975133)" stroke="none" fill="url(#e8c9c2a9-7a32-46d3-afd6-080872931e12)"><circle cx="25.044" cy="25.043" r="6.956"></circle><circle cx="6.956" cy="25.043" r="6.956"></circle><path d="M.172 2.201H13.74v13.568H.172zM18.432 2.201H32v13.568H18.432z"></path></g><!----><g data-v-423bf9ae="" id="abf27d41-b7a8-4014-a097-2913c5e290e0" fill="#041F57" transform="matrix(0.6412855278563748,0,0,0.6412855278563748,116.29807482063558,58.653299351307915)"><path d="M5.25 2.10C2.44 2.10 0.55 4.21 0.55 6.85C0.55 9.48 2.44 11.59 5.25 11.59C8.06 11.59 9.95 9.48 9.95 6.85C9.95 4.21 8.06 2.10 5.25 2.10ZM5.25 10.57C3.00 10.57 1.60 8.93 1.60 6.85C1.60 4.76 3.00 3.12 5.25 3.12C7.50 3.12 8.90 4.76 8.90 6.85C8.90 8.93 7.50 10.57 5.25 10.57ZM25.58 2.21L25.58 10.01L19.85 2.21L18.63 2.21L18.63 11.48L19.68 11.48L19.68 3.65L25.41 11.48L26.63 11.48L26.63 2.21ZM42.71 3.22L42.71 2.21L35.90 2.21L35.90 11.48L42.71 11.48L42.71 10.47L36.95 10.47L36.95 7.35L42.10 7.35L42.10 6.33L36.95 6.33L36.95 3.22ZM62.01 4.65C62.01 4.03 62.37 3.08 64.47 3.08C66.16 3.08 66.95 3.82 67.06 4.75L68.14 4.75C68.05 3.36 66.93 2.10 64.47 2.10C62.15 2.10 60.98 3.15 60.98 4.66C60.98 7.84 67.33 6.69 67.33 8.96C67.33 10.05 66.35 10.60 64.78 10.60C63.17 10.60 61.87 10.05 61.80 8.71L60.70 8.71C60.84 10.37 61.96 11.59 64.71 11.59C66.99 11.59 68.38 10.64 68.38 8.92C68.38 5.68 62.01 6.80 62.01 4.65ZM83.58 2.21L76.06 2.21L76.06 3.22L79.30 3.22L79.30 11.48L80.35 11.48L80.35 3.22L83.58 3.22ZM95.63 2.10C92.82 2.10 90.93 4.21 90.93 6.85C90.93 9.48 92.82 11.59 95.63 11.59C98.45 11.59 100.34 9.48 100.34 6.85C100.34 4.21 98.45 2.10 95.63 2.10ZM95.63 10.57C93.38 10.57 91.98 8.93 91.98 6.85C91.98 4.76 93.38 3.12 95.63 3.12C97.89 3.12 99.29 4.76 99.29 6.85C99.29 8.93 97.89 10.57 95.63 10.57ZM110.07 8.18L113.19 8.18C115.16 8.18 116.38 7.03 116.38 5.19C116.38 3.37 115.16 2.21 113.19 2.21L109.02 2.21L109.02 11.48L110.07 11.48ZM113.12 3.21C114.58 3.21 115.33 3.96 115.33 5.19C115.33 6.44 114.58 7.20 113.12 7.20L110.07 7.20L110.07 3.21ZM138.91 2.10C136.09 2.10 134.20 4.21 134.20 6.85C134.20 9.48 136.09 11.59 138.91 11.59C141.72 11.59 143.61 9.48 143.61 6.85C143.61 4.21 141.72 2.10 138.91 2.10ZM138.91 10.57C136.65 10.57 135.25 8.93 135.25 6.85C135.25 4.76 136.65 3.12 138.91 3.12C141.16 3.12 142.56 4.76 142.56 6.85C142.56 8.93 141.16 10.57 138.91 10.57ZM159.24 2.21L159.24 10.01L153.51 2.21L152.29 2.21L152.29 11.48L153.34 11.48L153.34 3.65L159.07 11.48L160.29 11.48L160.29 2.21ZM169.55 2.21L169.55 11.48L175.66 11.48L175.66 10.47L170.60 10.47L170.60 2.21ZM185.07 2.21L184.02 2.21L184.02 11.48L185.07 11.48ZM201.28 2.21L201.28 10.01L195.55 2.21L194.33 2.21L194.33 11.48L195.38 11.48L195.38 3.65L201.11 11.48L202.33 11.48L202.33 2.21ZM218.41 3.22L218.41 2.21L211.60 2.21L211.60 11.48L218.41 11.48L218.41 10.47L212.65 10.47L212.65 7.35L217.80 7.35L217.80 6.33L212.65 6.33L212.65 3.22ZM237.71 4.65C237.71 4.03 238.07 3.08 240.17 3.08C241.86 3.08 242.65 3.82 242.76 4.75L243.84 4.75C243.75 3.36 242.63 2.10 240.17 2.10C237.85 2.10 236.68 3.15 236.68 4.66C236.68 7.84 243.03 6.69 243.03 8.96C243.03 10.05 242.05 10.60 240.48 10.60C238.87 10.60 237.57 10.05 237.50 8.71L236.40 8.71C236.54 10.37 237.66 11.59 240.41 11.59C242.69 11.59 244.08 10.64 244.08 8.92C244.08 5.68 237.71 6.80 237.71 4.65ZM259.14 2.21L259.14 6.33L253.75 6.33L253.75 2.21L252.70 2.21L252.70 11.48L253.75 11.48L253.75 7.35L259.14 7.35L259.14 11.48L260.19 11.48L260.19 2.21ZM273.57 2.10C270.76 2.10 268.87 4.21 268.87 6.85C268.87 9.48 270.76 11.59 273.57 11.59C276.39 11.59 278.28 9.48 278.28 6.85C278.28 4.21 276.39 2.10 273.57 2.10ZM273.57 10.57C271.32 10.57 269.92 8.93 269.92 6.85C269.92 4.76 271.32 3.12 273.57 3.12C275.83 3.12 277.23 4.76 277.23 6.85C277.23 8.93 275.83 10.57 273.57 10.57ZM288.01 8.18L291.13 8.18C293.10 8.18 294.32 7.03 294.32 5.19C294.32 3.37 293.10 2.21 291.13 2.21L286.96 2.21L286.96 11.48L288.01 11.48ZM291.06 3.21C292.52 3.21 293.27 3.96 293.27 5.19C293.27 6.44 292.52 7.20 291.06 7.20L288.01 7.20L288.01 3.21Z"></path></g></svg>